# xmcd
#
# Track frame offsets:
# 150
# 16790
# 30990
# 48727
# 59400
# 76934
# 88918
# 107131
# 121191
# 140907
# 153223
# 163630
# 180726
# 191183
# 209315
# 226000
# 238910
# 252716
#
# Disc length: 3535 seconds
#
#
# Revision: 0
# Processed by: cddbd v1.5.2PL0 Copyright (c) Steve Scherf et al.
# Submitted via: FreeRIP 2.942 
#
DISCID=f70dcd12
DTITLE=Karl Denver - Movin' On
DYEAR=1999
DGENRE=Country
TTITLE0=Moonlight Bay
TTITLE1=Just Loving You
TTITLE2=Won't Give Up
TTITLE3=The Story Of My Life
TTITLE4=Voices Of The Highlands
TTITLE5=From A Jack To A King
TTITLE6=The Answer To Everything
TTITLE7=Travellin' Light
TTITLE8=Back To Africa
TTITLE9=King Of The Road
TTITLE10=A Little Bitty Tear
TTITLE11=Song For Maria
TTITLE12=Walk On By
TTITLE13=I Can't Stop Loving You
TTITLE14=Garden Party
TTITLE15=Runaway
TTITLE16=Last Train To San Fernando
TTITLE17=I Can't Go On This Way
EXTD=
EXTT0=
EXTT1=
EXTT2=
EXTT3=
EXTT4=
EXTT5=
EXTT6=
EXTT7=
EXTT8=
EXTT9=
EXTT10=
EXTT11=
EXTT12=
EXTT13=
EXTT14=
EXTT15=
EXTT16=
EXTT17=
PLAYORDER=
